<svg width="11" height="15" viewBox="0 0 11 15" fill="none" xmlns="http://www.w3.org/2000/svg">
<path id="Vector" d="M5.5 15C4.04186 14.9983 2.64394 14.4288 1.61288 13.4164C0.581812 12.4041 0.00177892 11.0316 0 9.5999C0.0328907 8.54731 0.347805 7.52184 0.913 6.62684L4.98239 0.261916C5.04117 0.18092 5.11881 0.11489 5.20885 0.0693304C5.29888 0.0237705 5.39871 0 5.5 0C5.60129 0 5.70112 0.0237705 5.79115 0.0693304C5.88119 0.11489 5.95883 0.18092 6.01761 0.261916L10.0693 6.59564C10.644 7.49894 10.9651 8.53541 11 9.5999C10.9982 11.0316 10.4182 12.4041 9.38712 13.4164C8.35606 14.4288 6.95814 14.9983 5.5 15ZM5.5 1.70854L1.96656 7.23345C1.51128 7.94448 1.25457 8.76062 1.22222 9.5999C1.22222 10.7138 1.67292 11.7821 2.47515 12.5698C3.27739 13.3575 4.36546 13.8 5.5 13.8C6.63454 13.8 7.72261 13.3575 8.52485 12.5698C9.32708 11.7821 9.77778 10.7138 9.77778 9.5999C9.74291 8.74889 9.47983 7.92201 9.01511 7.20285L5.5 1.70854Z" fill="white"/>
</svg>
