<svg width="26" height="32" viewBox="0 0 26 32" fill="none" xmlns="http://www.w3.org/2000/svg">
<path id="Vector" fill-rule="evenodd" clip-rule="evenodd" d="M18.6998 30.6539C15.9359 32.0316 12.7823 32.3646 9.80029 31.5936C6.81824 30.8225 4.20118 28.9975 2.41486 26.4432C0.628538 23.889 -0.211155 20.7712 0.0452163 17.6448C0.301588 14.5184 1.63739 11.5861 3.8149 9.36989L13.0043 0L22.1922 9.36989C23.4352 10.6341 24.4132 12.1429 25.0667 13.8045C26.0139 16.214 26.2464 18.8541 25.7354 21.3972C25.2244 23.9403 23.9924 26.2743 22.1922 28.1097C21.1746 29.1496 19.9944 30.0094 18.6998 30.6539V30.6539ZM5.85778 11.4518L13.0043 4.16374L20.1508 11.4518C21.9899 13.3225 23.0492 15.8455 23.1075 18.4939H2.90102C2.95922 15.8455 4.01856 13.3225 5.85778 11.4518V11.4518Z" fill="white"/>
</svg>
