<svg width="60" height="60" viewBox="0 0 60 60" fill="none" xmlns="http://www.w3.org/2000/svg">
<path id="Vector" d="M30 11.9999C29.2389 11.9999 28.5091 11.6976 27.9709 11.1595C27.4328 10.6213 27.1304 9.89143 27.1304 9.13037V2.8695C27.1304 2.10844 27.4328 1.37856 27.9709 0.840411C28.5091 0.302263 29.2389 -6.48499e-05 30 -6.48499e-05C30.7611 -6.48499e-05 31.4909 0.302263 32.0291 0.840411C32.5672 1.37856 32.8696 2.10844 32.8696 2.8695V9.13037C32.8696 9.89143 32.5672 10.6213 32.0291 11.1595C31.4909 11.6976 30.7611 11.9999 30 11.9999ZM30 59.9999C29.2389 59.9999 28.5091 59.6976 27.9709 59.1595C27.4328 58.6213 27.1304 57.8914 27.1304 57.1304V50.8695C27.1304 50.1084 27.4328 49.3786 27.9709 48.8404C28.5091 48.3023 29.2389 47.9999 30 47.9999C30.7611 47.9999 31.4909 48.3023 32.0291 48.8404C32.5672 49.3786 32.8696 50.1084 32.8696 50.8695V57.1304C32.8696 57.8914 32.5672 58.6213 32.0291 59.1595C31.4909 59.6976 30.7611 59.9999 30 59.9999ZM44.7574 18.1121C44.19 18.112 43.6353 17.9438 43.1635 17.6285C42.6917 17.3133 42.324 16.8653 42.1068 16.3411C41.8896 15.8169 41.8326 15.24 41.9432 14.6835C42.0537 14.127 42.3268 13.6157 42.7278 13.2143L47.1548 8.78733C47.6953 8.26088 48.4214 7.96849 49.1759 7.97346C49.9304 7.97843 50.6525 8.28036 51.1861 8.81387C51.7196 9.34739 52.0215 10.0696 52.0265 10.8241C52.0314 11.5786 51.7391 12.3047 51.2126 12.8452L46.7857 17.2721C46.5195 17.5388 46.2034 17.7503 45.8553 17.8944C45.5072 18.0386 45.1341 18.1126 44.7574 18.1121ZM10.8157 52.0538C10.2481 52.0538 9.69327 51.8854 9.2214 51.57C8.74953 51.2546 8.38178 50.8064 8.16467 50.2819C7.94757 49.7575 7.89085 49.1805 8.00169 48.6239C8.11254 48.0672 8.38596 47.556 8.78739 47.1547L13.2143 42.7278C13.4795 42.4555 13.7961 42.2387 14.1457 42.0898C14.4954 41.9409 14.8711 41.8629 15.2511 41.8604C15.6311 41.8579 16.0078 41.9309 16.3594 42.0752C16.711 42.2195 17.0304 42.4322 17.2991 42.7009C17.5678 42.9696 17.7804 43.289 17.9247 43.6406C18.069 43.9921 18.142 44.3688 18.1395 44.7488C18.137 45.1289 18.059 45.5046 17.9101 45.8542C17.7613 46.2039 17.5444 46.5204 17.2722 46.7856L12.8452 51.2125C12.579 51.4796 12.2627 51.6913 11.9144 51.8357C11.5661 51.9801 11.1927 52.0542 10.8157 52.0538ZM57.1304 32.8695H50.8696C50.1085 32.8695 49.3786 32.5672 48.8405 32.029C48.3023 31.4909 48 30.761 48 29.9999C48 29.2389 48.3023 28.509 48.8405 27.9708C49.3786 27.4327 50.1085 27.1304 50.8696 27.1304H57.1304C57.8915 27.1304 58.6214 27.4327 59.1595 27.9708C59.6977 28.509 60 29.2389 60 29.9999C60 30.761 59.6977 31.4909 59.1595 32.029C58.6214 32.5672 57.8915 32.8695 57.1304 32.8695ZM9.13043 32.8695H2.86957C2.10851 32.8695 1.37862 32.5672 0.840476 32.029C0.302328 31.4909 0 30.761 0 29.9999C0 29.2389 0.302328 28.509 0.840476 27.9708C1.37862 27.4327 2.10851 27.1304 2.86957 27.1304H9.13043C9.89149 27.1304 10.6214 27.4327 11.1595 27.9708C11.6977 28.509 12 29.2389 12 29.9999C12 30.761 11.6977 31.4909 11.1595 32.029C10.6214 32.5672 9.89149 32.8695 9.13043 32.8695ZM49.1843 52.0538C48.8073 52.0542 48.4339 51.9801 48.0856 51.8357C47.7373 51.6913 47.421 51.4796 47.1548 51.2125L42.7278 46.7856C42.2014 46.2451 41.909 45.519 41.914 44.7645C41.9189 44.01 42.2209 43.2878 42.7544 42.7543C43.2879 42.2208 44.0101 41.9189 44.7646 41.9139C45.5191 41.9089 46.2452 42.2013 46.7857 42.7278L51.2126 47.1547C51.614 47.556 51.8875 48.0672 51.9983 48.6239C52.1092 49.1805 52.0524 49.7575 51.8353 50.2819C51.6182 50.8064 51.2505 51.2546 50.7786 51.57C50.3067 51.8854 49.7519 52.0538 49.1843 52.0538ZM15.2426 18.1121C14.8658 18.1128 14.4926 18.039 14.1445 17.8948C13.7964 17.7507 13.4803 17.539 13.2143 17.2721L8.78739 12.8452C8.26095 12.3047 7.96856 11.5786 7.97353 10.8241C7.97849 10.0696 8.28042 9.34739 8.81394 8.81387C9.34746 8.28036 10.0696 7.97843 10.8241 7.97346C11.5786 7.96849 12.3047 8.26088 12.8452 8.78733L17.2722 13.2143C17.6732 13.6157 17.9463 14.127 18.0568 14.6835C18.1674 15.24 18.1105 15.8169 17.8932 16.3411C17.676 16.8653 17.3083 17.3133 16.8365 17.6285C16.3647 17.9438 15.81 18.112 15.2426 18.1121ZM30 43.3043C27.3686 43.3043 24.7964 42.524 22.6085 41.0621C20.4206 39.6002 18.7154 37.5223 17.7084 35.0913C16.7014 32.6602 16.4379 29.9852 16.9513 27.4044C17.4646 24.8236 18.7318 22.453 20.5924 20.5923C22.4531 18.7317 24.8237 17.4646 27.4045 16.9512C29.9852 16.4379 32.6603 16.7013 35.0914 17.7083C37.5224 18.7153 39.6003 20.4205 41.0622 22.6084C42.5241 24.7963 43.3043 27.3686 43.3043 29.9999C43.3002 33.5272 41.8972 36.9088 39.403 39.403C36.9089 41.8971 33.5273 43.3001 30 43.3043Z" fill="white"/>
</svg>
