<svg width="86" height="63" viewBox="0 0 86 63" fill="none" xmlns="http://www.w3.org/2000/svg">
<path id="Vector" d="M41.0972 0.80466C41.3469 0.549594 41.6435 0.347227 41.97 0.209151C42.2965 0.0710738 42.6465 0 43 0C43.3535 0 43.7035 0.0710738 44.03 0.209151C44.3565 0.347227 44.6531 0.549594 44.9028 0.80466L52.9653 9.02141C53.2151 9.27607 53.4133 9.57838 53.5486 9.9111C53.6838 10.2438 53.7534 10.6004 53.7534 10.9606C53.7534 11.3207 53.6838 11.6773 53.5486 12.01C53.4133 12.3427 53.2151 12.6451 52.9653 12.8997C52.7154 13.1544 52.4187 13.3564 52.0923 13.4942C51.7658 13.632 51.4159 13.7029 51.0625 13.7029C50.7091 13.7029 50.3592 13.632 50.0327 13.4942C49.7063 13.3564 49.4096 13.1544 49.1597 12.8997L45.6875 9.35556V19.1773C45.6875 19.9037 45.4044 20.6004 44.9004 21.114C44.3963 21.6277 43.7128 21.9162 43 21.9162C42.2872 21.9162 41.6037 21.6277 41.0997 21.114C40.5956 20.6004 40.3125 19.9037 40.3125 19.1773V9.35556L36.8403 12.8997C36.5904 13.1544 36.2937 13.3564 35.9673 13.4942C35.6408 13.632 35.2909 13.7029 34.9375 13.7029C34.5841 13.7029 34.2342 13.632 33.9077 13.4942C33.5813 13.3564 33.2846 13.1544 33.0347 12.8997C32.7849 12.6451 32.5867 12.3427 32.4514 12.01C32.3162 11.6773 32.2466 11.3207 32.2466 10.9606C32.2466 10.6004 32.3162 10.2438 32.4514 9.9111C32.5867 9.57838 32.7849 9.27607 33.0347 9.02141L41.0972 0.80466ZM12.5936 18.3173C13.0976 17.8038 13.7811 17.5154 14.4937 17.5154C15.2063 17.5154 15.8898 17.8038 16.3937 18.3173L23.994 26.063C24.4836 26.5795 24.7544 27.2714 24.7483 27.9895C24.7422 28.7077 24.4595 29.3946 23.9613 29.9024C23.463 30.4102 22.7889 30.6983 22.0843 30.7045C21.3796 30.7108 20.7007 30.4347 20.1939 29.9358L12.5936 22.1901C12.0898 21.6765 11.8068 20.98 11.8068 20.2537C11.8068 19.5275 12.0898 18.8309 12.5936 18.3173ZM73.4064 18.3173C73.9102 18.8309 74.1932 19.5275 74.1932 20.2537C74.1932 20.98 73.9102 21.6765 73.4064 22.1901L65.8061 29.9358C65.5582 30.1974 65.2617 30.406 64.9338 30.5496C64.6059 30.6931 64.2532 30.7687 63.8964 30.7718C63.5395 30.775 63.1857 30.7057 62.8554 30.568C62.5251 30.4303 62.225 30.2269 61.9727 29.9697C61.7204 29.7126 61.5208 29.4068 61.3857 29.0702C61.2505 28.7336 61.1825 28.3729 61.1856 28.0092C61.1887 27.6456 61.2629 27.2862 61.4037 26.952C61.5446 26.6178 61.7493 26.3156 62.006 26.063L69.6062 18.3173C70.1102 17.8038 70.7937 17.5154 71.5063 17.5154C72.2189 17.5154 72.9024 17.8038 73.4064 18.3173V18.3173ZM62.9359 57.5222C64.2537 54.1963 64.7503 50.5915 64.3819 47.0244C64.0136 43.4572 62.7916 40.0368 60.8232 37.0634C58.8549 34.0899 56.2004 31.6544 53.0928 29.9706C49.9852 28.2868 46.5195 27.4063 43 27.4063C39.4805 27.4063 36.0148 28.2868 32.9072 29.9706C29.7996 31.6544 27.1451 34.0899 25.1768 37.0634C23.2084 40.0368 21.9864 43.4572 21.6181 47.0244C21.2497 50.5915 21.7463 54.1963 23.0641 57.5222H2.6875C1.97473 57.5222 1.29115 57.8107 0.787151 58.3244C0.283147 58.838 0 59.5347 0 60.2611C0 60.9875 0.283147 61.6841 0.787151 62.1978C1.29115 62.7114 1.97473 63 2.6875 63H83.3125C84.0253 63 84.7088 62.7114 85.2129 62.1978C85.7169 61.6841 86 60.9875 86 60.2611C86 59.5347 85.7169 58.838 85.2129 58.3244C84.7088 57.8107 84.0253 57.5222 83.3125 57.5222H62.9413H62.9359ZM0 49.3054C0 48.579 0.283147 47.8823 0.787151 47.3687C1.29115 46.8551 1.97473 46.5665 2.6875 46.5665H13.4375C14.1503 46.5665 14.8338 46.8551 15.3378 47.3687C15.8419 47.8823 16.125 48.579 16.125 49.3054C16.125 50.0318 15.8419 50.7285 15.3378 51.2421C14.8338 51.7558 14.1503 52.0443 13.4375 52.0443H2.6875C1.97473 52.0443 1.29115 51.7558 0.787151 51.2421C0.283147 50.7285 0 50.0318 0 49.3054ZM69.875 49.3054C69.875 48.579 70.1581 47.8823 70.6621 47.3687C71.1662 46.8551 71.8497 46.5665 72.5625 46.5665H83.3125C84.0253 46.5665 84.7088 46.8551 85.2129 47.3687C85.7169 47.8823 86 48.579 86 49.3054C86 50.0318 85.7169 50.7285 85.2129 51.2421C84.7088 51.7558 84.0253 52.0443 83.3125 52.0443H72.5625C71.8497 52.0443 71.1662 51.7558 70.6621 51.2421C70.1581 50.7285 69.875 50.0318 69.875 49.3054Z" fill="white"/>
</svg>
