<svg width="86" height="61" viewBox="0 0 86 61" fill="none" xmlns="http://www.w3.org/2000/svg">
<path id="Vector" d="M41.0972 20.443C41.3469 20.6899 41.6435 20.8859 41.97 21.0196C42.2965 21.1533 42.6465 21.2221 43 21.2221C43.3535 21.2221 43.7035 21.1533 44.03 21.0196C44.3565 20.8859 44.6531 20.6899 44.9028 20.443L52.9653 12.4864C53.2151 12.2398 53.4133 11.9471 53.5486 11.6249C53.6838 11.3027 53.7534 10.9574 53.7534 10.6087C53.7534 10.26 53.6838 9.91465 53.5486 9.59247C53.4133 9.27029 53.2151 8.97754 52.9653 8.73096C52.7154 8.48437 52.4187 8.28876 52.0923 8.15531C51.7658 8.02186 51.4159 7.95317 51.0625 7.95317C50.7091 7.95317 50.3592 8.02186 50.0327 8.15531C49.7063 8.28876 49.4096 8.48437 49.1597 8.73096L45.6875 12.1629V2.65217C45.6875 1.94877 45.4044 1.27418 44.9004 0.776804C44.3963 0.279425 43.7128 0 43 0C42.2872 0 41.6037 0.279425 41.0997 0.776804C40.5956 1.27418 40.3125 1.94877 40.3125 2.65217V12.1629L36.8403 8.73096C36.5904 8.48437 36.2937 8.28876 35.9673 8.15531C35.6408 8.02186 35.2909 7.95317 34.9375 7.95317C34.5841 7.95317 34.2342 8.02186 33.9077 8.15531C33.5813 8.28876 33.2846 8.48437 33.0347 8.73096C32.7849 8.97754 32.5867 9.27029 32.4514 9.59247C32.3162 9.91465 32.2466 10.26 32.2466 10.6087C32.2466 10.9574 32.3162 11.3027 32.4514 11.6249C32.5867 11.9471 32.7849 12.2398 33.0347 12.4864L41.0972 20.443V20.443ZM12.5936 17.7377C13.0976 17.2405 13.7811 16.9612 14.4937 16.9612C15.2063 16.9612 15.8898 17.2405 16.3937 17.7377L23.994 25.2328C24.4836 25.733 24.7544 26.4029 24.7483 27.0983C24.7422 27.7937 24.4595 28.4589 23.9613 28.9506C23.463 29.4424 22.7889 29.7213 22.0843 29.7274C21.3796 29.7334 20.7007 29.4661 20.1939 28.983L12.5936 21.4826C12.0898 20.9853 11.8068 20.3108 11.8068 19.6075C11.8068 18.9043 12.0898 18.2298 12.5936 17.7324V17.7377ZM73.4064 17.7377C73.9086 18.2349 74.1906 18.9082 74.1906 19.6102C74.1906 20.3121 73.9086 20.9855 73.4064 21.4826L65.8061 28.983C65.5582 29.2363 65.2617 29.4383 64.9338 29.5773C64.6059 29.7163 64.2532 29.7895 63.8964 29.7925C63.5395 29.7956 63.1857 29.7285 62.8554 29.5951C62.5251 29.4618 62.225 29.2649 61.9727 29.0158C61.7204 28.7668 61.5208 28.4707 61.3857 28.1447C61.2505 27.8188 61.1825 27.4696 61.1856 27.1174C61.1887 26.7653 61.2629 26.4172 61.4037 26.0937C61.5446 25.7701 61.7493 25.4774 62.006 25.2328L69.6062 17.7324C70.1102 17.2352 70.7937 16.9559 71.5063 16.9559C72.2189 16.9559 72.9024 17.2352 73.4064 17.7324V17.7377ZM62.9359 55.6957C64.2537 52.4751 64.7503 48.9845 64.3819 45.5303C64.0136 42.0762 62.7916 38.7641 60.8232 35.8848C58.8549 33.0055 56.2004 30.6471 53.0928 29.0167C49.9852 27.3862 46.5195 26.5336 43 26.5336C39.4805 26.5336 36.0148 27.3862 32.9072 29.0167C29.7996 30.6471 27.1451 33.0055 25.1768 35.8848C23.2084 38.7641 21.9864 42.0762 21.6181 45.5303C21.2497 48.9845 21.7463 52.4751 23.0641 55.6957H2.6875C1.97473 55.6957 1.29115 55.9751 0.787151 56.4725C0.283147 56.9698 0 57.6444 0 58.3478C0 59.0512 0.283147 59.7258 0.787151 60.2232C1.29115 60.7206 1.97473 61 2.6875 61H83.3125C84.0253 61 84.7088 60.7206 85.2129 60.2232C85.7169 59.7258 86 59.0512 86 58.3478C86 57.6444 85.7169 56.9698 85.2129 56.4725C84.7088 55.9751 84.0253 55.6957 83.3125 55.6957H62.9413H62.9359ZM0 47.7391C0 47.0357 0.283147 46.3611 0.787151 45.8638C1.29115 45.3664 1.97473 45.087 2.6875 45.087H13.4375C14.1503 45.087 14.8338 45.3664 15.3378 45.8638C15.8419 46.3611 16.125 47.0357 16.125 47.7391C16.125 48.4425 15.8419 49.1171 15.3378 49.6145C14.8338 50.1119 14.1503 50.3913 13.4375 50.3913H2.6875C1.97473 50.3913 1.29115 50.1119 0.787151 49.6145C0.283147 49.1171 0 48.4425 0 47.7391ZM69.875 47.7391C69.875 47.0357 70.1581 46.3611 70.6621 45.8638C71.1662 45.3664 71.8497 45.087 72.5625 45.087H83.3125C84.0253 45.087 84.7088 45.3664 85.2129 45.8638C85.7169 46.3611 86 47.0357 86 47.7391C86 48.4425 85.7169 49.1171 85.2129 49.6145C84.7088 50.1119 84.0253 50.3913 83.3125 50.3913H72.5625C71.8497 50.3913 71.1662 50.1119 70.6621 49.6145C70.1581 49.1171 69.875 48.4425 69.875 47.7391Z" fill="white"/>
</svg>
