<svg width="34" height="34" viewBox="0 0 34 34" fill="none" xmlns="http://www.w3.org/2000/svg">
<path id="Vector" d="M13.4375 33.625H8.6875C8.0579 33.6241 7.45436 33.3735 7.00916 32.9283C6.56397 32.4831 6.31344 31.8796 6.3125 31.25V21.75H8.6875V31.25H13.4375V21.75H15.8125V31.25C15.8116 31.8796 15.561 32.4831 15.1158 32.9283C14.6706 33.3735 14.0671 33.6241 13.4375 33.625ZM27.6875 21.75H25.6094L22.9375 32.4743L20.3155 21.75H18.1875L21.1562 33.625H24.7188L27.6875 21.75ZM15.8125 0.375H18.1875V6.3125H15.8125V0.375ZM23.7545 8.56875L27.9179 4.40538L29.597 6.0845L25.4336 10.2479L23.7545 8.56875ZM27.6875 15.8125H33.625V18.1875H27.6875V15.8125ZM0.375 15.8125H6.3125V18.1875H0.375V15.8125ZM4.40656 6.0845L6.08569 4.40538L10.2491 8.56875L8.56875 10.2479L4.40656 6.0845ZM24.125 18.1875H21.75V17C21.75 15.7402 21.2496 14.532 20.3588 13.6412C19.468 12.7504 18.2598 12.25 17 12.25C15.7402 12.25 14.532 12.7504 13.6412 13.6412C12.7504 14.532 12.25 15.7402 12.25 17V18.1875H9.875V17C9.875 15.1103 10.6257 13.2981 11.9619 11.9619C13.2981 10.6257 15.1103 9.875 17 9.875C18.8897 9.875 20.7019 10.6257 22.0381 11.9619C23.3743 13.2981 24.125 15.1103 24.125 17V18.1875Z" fill="white"/>
</svg>
